<?xml version="1.0" encoding="utf-8"?>
<!-- Svg Vector Icons : http://www.onlinewebfonts.com/icon -->
<!DOCTYPE svg PUBLIC "-//W3C//DTD SVG 1.1//EN" "http://www.w3.org/Graphics/SVG/1.1/DTD/svg11.dtd">
<svg version="1.1" xmlns="http://www.w3.org/2000/svg" xmlns:xlink="http://www.w3.org/1999/xlink" x="0px" y="0px" viewBox="0 0 1000 1000" enable-background="new 0 0 1000 1000" xml:space="preserve">
<metadata> Svg Vector Icons : http://www.onlinewebfonts.com/icon </metadata>
<g><g transform="translate(0.000000,511.000000) scale(0.100000,-0.100000)"><path d="M4677,4997.3c-309.2-39.4-645.9-139.8-901.9-267.8c-130-65-135.9-66.9-265.8-47.3c-74.8,9.8-366.3,19.7-651.8,19.7c-618.4,0-693.2,11.8-1112.6,179.2c-163.5,65-301.3,110.3-309.2,102.4c-19.7-23.6-98.5-224.5-98.5-252.1c0-29.5,521.9-238.3,726.7-291.5c122.1-31.5,242.2-39.4,647.9-47.3c553.4-11.8,571.1-17.7,317.1-114.2c-382-147.7-768-525.8-903.9-892.1c-118.2-313.1-141.8-640-70.9-933.4l37.4-151.6l-118.2-183.1c-884.2-1366.7-781.8-3115.4,258-4363.9C2339.5-2377.6,4964.6-4790,5000-4790c29.5,0,2654.6,2408.4,2753.1,2528.6c439.2,527.8,705,1094.9,823.2,1754.6c43.3,246.2,57.1,760.1,29.5,1014.2c-66.9,582.9-259.9,1116.6-579,1610.9l-118.2,183.1L7946,2453c70.9,293.4,47.3,620.3-70.9,933.4c-135.9,366.3-521.9,744.4-903.9,892.1c-254,96.5-236.3,102.4,317.1,114.2c403.7,7.9,525.8,15.8,645.9,47.3c204.8,51.2,728.6,261.9,728.6,291.5c0,27.6-78.8,228.4-98.5,252.1c-7.9,7.9-145.7-37.4-309.2-102.4c-419.5-167.4-494.3-179.2-1112.6-179.2c-285.5,0-577-9.8-651.8-19.7c-130-19.7-135.9-17.7-265.8,47.3c-189.1,94.5-447,183.2-679.4,230.4C5319,5005.2,4889.7,5024.9,4677,4997.3z M5512,4654.7c173.3-39.4,389.9-108.3,401.7-126c5.9-7.9-59.1-55.2-141.8-102.4c-208.8-122.1-533.7-447-657.7-661.7c-53.2-88.6-94.5-171.3-94.5-183.1c0-11.8-7.9-21.7-19.7-21.7c-9.8,0-19.7,9.8-19.7,21.7c0,11.8-41.4,94.5-92.6,183.1c-126,214.7-451,539.6-659.7,661.7c-82.7,47.3-147.7,94.5-141.8,102.4c15.7,25.6,263.9,96.5,470.7,135.9C4791.3,4707.9,5299.3,4703.9,5512,4654.7z M3867.7,4042.2c600.6-126,1008.3-677.4,966.9-1309.6c-35.4-537.6-405.7-996.5-917.7-1134.3c-173.3-45.3-500.2-45.3-669.6,0c-283.6,76.8-551.4,269.8-708.9,510.1c-258,395.8-285.5,866.5-76.8,1291.8C2707.8,3898.5,3286.7,4164.3,3867.7,4042.2z M6703.4,4042.2c354.5-74.8,677.4-321,835-642c159.5-324.9,185.1-701.1,63-1012.2c-246.2-638.1-864.5-955.1-1526.2-785.8c-206.8,53.2-382,157.5-543.5,321c-226.5,228.4-344.6,490.4-366.3,809.4C5104.4,3583.4,5852.7,4219.5,6703.4,4042.2z M5076.8,1992.2c35.4-59.1,116.2-163.4,179.2-232.4l116.2-122.1L5191,1407.3c-100.4-126-185.1-228.4-191-228.4s-90.6,102.4-191,228.4l-181.2,230.4l106.3,114.2c57.1,61,139.8,165.4,181.2,230.4c41.3,67,78.8,120.1,84.7,120.1S5039.4,2053.3,5076.8,1992.2z M2487.2,1696.8c238.3-236.3,492.3-372.2,819.2-435.2c92.6-17.7,173.3-41.3,179.2-51.2c7.9-9.9,29.5-90.6,49.2-179.2c47.3-206.8,49.2-685.3,2-888.1c-84.7-374.2-242.2-677.5-498.2-953.1c-191-206.8-852.7-813.3-874.4-799.5c-31.5,19.7-238.3,462.8-295.4,636.1c-232.4,697.1-232.4,1492.7,2,2176.1c67,193,193,462.8,307.2,651.8l70.9,116.2l39.4-57.1C2310,1881.9,2400.5,1785.4,2487.2,1696.8z M7822,1852.4c594.7-980.7,647.9-2203.6,139.8-3225.7c-59.1-118.2-116.2-224.5-124.1-232.4c-19.7-19.7-661.7,561.2-876.3,793.6C6477-290.2,6305.6,434.5,6498.6,1161.2c17.7,66.9,23.6,70.9,122.1,84.7c157.5,19.7,435.2,120.1,588.8,208.7c149.7,88.6,423.4,334.8,490.3,443.1c21.7,37.4,43.3,67,47.3,67C7751.1,1964.6,7784.6,1913.4,7822,1852.4z M4682.9,1068.6c167.4-210.7,309.2-384,317.1-384c9.8,0,569.1,685.3,612.4,752.3c5.9,9.8,74.8-13.8,153.6-51.2c78.8-37.4,206.8-84.7,281.6-104.4c135.9-35.4,137.9-35.4,124.1-94.5c-165.4-766.1-21.7-1471.1,417.5-2054l124.1-163.5l-57.1-82.7c-31.5-45.3-108.3-137.9-171.3-204.8c-149.7-155.6-1461.2-1345-1484.8-1345c-9.8,0-358.4,309.2-772,687.3c-643.9,586.9-854.7,795.6-927.5,921.6c-7.9,11.8,41.3,96.5,112.2,189c435.2,579,579,1287.9,415.5,2052c-13.8,59.1-11.8,59.1,124.1,94.5c74.8,19.7,196.9,65,271.8,102.4c74.8,35.4,139.8,66.9,145.7,66.9S4515.6,1279.3,4682.9,1068.6z M3274.9-1517c112.3-120.1,1707.4-1569.5,1725.1-1569.5c17.7,0,1612.9,1449.4,1725.1,1569.5c45.3,45.3,112.3,126,151.6,177.2l68.9,92.5l346.6-315.1c191-173.3,346.6-322.9,346.6-332.8c0-31.5-187.1-242.2-386-433.2C6947.6-2621.8,5017.7-4366.6,4998-4366.6c-17.7,0-1937.8,1738.9-2250.9,2038.2c-196.9,189-386,401.7-386,433.2c0,9.8,155.6,159.5,346.6,332.8l344.6,317.1l70.9-94.5C3160.7-1391,3229.6-1471.7,3274.9-1517z"/><path d="M3444.3,3258.5c-98.5-31.5-281.6-220.6-311.1-321c-51.2-173.3-13.8-293.4,133.9-441.1c208.8-210.7,421.4-210.7,630.2,0c210.7,208.7,210.7,421.4,0,630.2C3751.5,3274.2,3617.6,3313.6,3444.3,3258.5z M3700.3,2929.6c25.6-25.6,39.4-65,39.4-118.2c0-104.4-53.2-157.5-157.5-157.5s-157.5,53.2-157.5,157.5c0,53.2,13.8,92.6,39.4,118.2c25.6,25.6,65,39.4,118.2,39.4S3674.7,2955.2,3700.3,2929.6z"/><path d="M6280,3258.5c-98.5-31.5-281.6-220.6-311.1-321c-13.8-45.3-23.6-102.4-23.6-126c0-216.6,256-472.6,472.6-472.6s472.6,256,472.6,472.6c0,108.3-51.2,208.7-157.5,315.1C6587.2,3274.2,6453.3,3313.6,6280,3258.5z M6536,2929.6c25.6-25.6,39.4-65,39.4-118.2c0-53.2-13.8-92.6-39.4-118.2c-25.6-25.6-65-39.4-118.2-39.4s-92.6,13.8-118.2,39.4c-25.6,25.6-39.4,65-39.4,118.2c0,53.2,13.8,92.6,39.4,118.2c25.6,25.6,65,39.4,118.2,39.4S6510.4,2955.2,6536,2929.6z"/></g></g>
</svg>